<svg width="123" height="81" viewBox="0 0 123 81" fill="none" xmlns="http://www.w3.org/2000/svg">
<g clip-path="url(#clip0_977_134277)">
<path d="M81.6091 41.3288H79.0535V30.9041H75.4988V28.5254H85.1639V30.9041H81.6091V41.3288Z" fill="white"/>
<path d="M91.5886 34.3048C89.8666 34.3048 88.996 35.4563 88.996 37.1951V41.3288H86.6453V32.1839H88.2184L88.478 34.159C89.1627 32.8778 90.4023 32.0557 92.1434 32.0557H92.5329V34.3048H91.5872" fill="white"/>
<path d="M103.678 40.1584C103.678 42.8274 101.919 44.8213 99.0492 44.8213C97.345 44.8213 95.9387 44.2179 94.9383 43.3944L96.2721 41.9863C97.1605 42.4251 97.9941 42.718 99.0492 42.6991C100.383 42.6991 101.308 42.0228 101.308 40.6876V40.1031C100.715 40.8523 99.7353 41.1817 98.7718 41.1817C96.0876 41.1817 94.7169 39.37 94.7169 36.7186V32.1826H97.0675V36.5904C97.0675 38.2738 97.8821 38.9313 99.1421 38.9313C100.475 38.9313 101.326 38.1442 101.326 36.3892V32.1826H103.677V40.1571" fill="white"/>
<path d="M84.2209 57.6247V52.3745H79.2025V57.6247H76.6468V44.8213H79.2025V49.9972H84.2209V44.8213H86.7765V57.6247H84.2209Z" fill="white"/>
<path d="M96.6056 53.051C96.6056 51.5525 95.4384 50.6008 94.2166 50.6008C92.9948 50.6008 91.8291 51.5525 91.8291 53.051C91.8291 54.5495 92.9771 55.4837 94.2166 55.4837C95.4562 55.4837 96.6056 54.5509 96.6056 53.051ZM97.1987 57.6248L97.0689 56.3261C96.3842 57.1861 95.2731 57.7342 93.9952 57.7342C91.3658 57.7342 89.4784 55.6498 89.4784 53.0524C89.4784 50.455 91.3658 48.353 93.9952 48.353C95.2731 48.353 96.3842 48.9187 97.0689 49.7786L97.1987 48.4799H98.7731V57.6248H97.1987Z" fill="white"/>
<path d="M109.769 50.0526L108.362 51.5524C107.602 50.8572 106.936 50.6182 106.122 50.6182C104.881 50.6182 103.733 51.5524 103.733 53.0509C103.733 54.5494 104.881 55.4836 106.122 55.4836C106.936 55.4836 107.602 55.2474 108.362 54.5508L109.769 56.0506C108.899 57.0739 107.585 57.7327 106.122 57.7327C103.491 57.7327 101.382 55.6483 101.382 53.0509C101.382 50.4535 103.492 48.3691 106.122 48.3691C107.584 48.3691 108.899 49.0279 109.769 50.0526Z" fill="white"/>
<path d="M117.137 55.192C116.581 54.3509 116.266 54.0391 115.378 54.0391H114.73V57.6247H112.38V44.8213H114.73V51.8075H115.303C116.174 51.8075 116.488 51.5146 117.044 50.656L118.487 48.4798H121.099L119.024 51.5699C118.636 52.1747 118.117 52.7404 117.711 52.9051C118.173 53.0522 118.692 53.6368 119.119 54.2767L121.34 57.6247H118.728L117.136 55.192" fill="white"/>
<path d="M86.8134 72.3073V64.1304L82.9061 68.9229L79.0179 64.1304V72.3073H76.4623V59.5039H77.9807L82.9061 65.614L87.8493 59.5039H89.3677V72.3073H86.8121" fill="white"/>
<path d="M94.8467 66.9116H99.0875C99.0875 66.6929 99.0123 66.3986 98.8647 66.1799C98.5504 65.594 97.8834 65.1566 96.9951 65.1566C95.735 65.1566 94.8836 66.0341 94.8467 66.9116ZM101.066 65.5036C101.456 66.3446 101.474 67.5893 101.215 68.375H94.7538C94.7538 69.6197 95.7897 70.2961 97.0484 70.2961C98.0119 70.2961 99.0109 70.076 99.8446 69.6562L101.086 70.9913C100.085 71.723 98.6966 72.4183 97.0484 72.4183C94.2344 72.4183 92.3279 70.4068 92.3279 67.7365C92.3279 65.0662 94.106 63.0371 96.9937 63.0371C98.974 63.0371 100.364 63.97 101.066 65.5063" fill="white"/>
<path d="M46.2562 43.8495V39.5119L45.1424 40.3611L44.4071 39.3688L46.3737 37.9419H47.6666V43.8481H46.2562" fill="white"/>
<path d="M52.0495 40.8792C52.0495 40.6956 52.0386 40.4931 52.0167 40.2704C51.9935 40.049 51.9525 39.8411 51.8896 39.6494C51.8281 39.4577 51.7379 39.2957 51.6231 39.1661C51.5069 39.0365 51.358 38.9703 51.1707 38.9703C50.9835 38.9703 50.8332 39.0351 50.7156 39.1661C50.5967 39.2957 50.5052 39.4577 50.4396 39.6494C50.3753 39.8411 50.3316 40.049 50.3084 40.2704C50.2851 40.4931 50.2742 40.697 50.2742 40.8792C50.2742 41.0615 50.2865 41.2748 50.3084 41.5002C50.3316 41.7257 50.374 41.9336 50.4396 42.1253C50.5052 42.317 50.5954 42.479 50.7156 42.6086C50.8332 42.7395 50.9862 42.8057 51.1707 42.8057C51.3552 42.8057 51.5069 42.7409 51.6231 42.6086C51.7379 42.4776 51.8267 42.317 51.8896 42.1253C51.9525 41.9336 51.9935 41.7257 52.0167 41.5002C52.0386 41.2748 52.0495 41.0682 52.0495 40.8792ZM53.5023 40.8792C53.5023 41.2964 53.4599 41.6933 53.3752 42.0726C53.2918 42.4506 53.1565 42.7827 52.9706 43.0689C52.7848 43.3565 52.5442 43.5833 52.249 43.7534C51.9538 43.9221 51.5944 44.0072 51.1721 44.0072C50.7498 44.0072 50.389 43.9221 50.0911 43.7534C49.7931 43.5833 49.5499 43.3565 49.3599 43.0689C49.1727 42.7827 49.0346 42.4506 48.9499 42.0726C48.8665 41.6946 48.8242 41.2964 48.8242 40.8792C48.8242 40.4621 48.8665 40.0652 48.9499 39.6912C49.0346 39.3159 49.1727 38.9865 49.3599 38.7057C49.5485 38.4249 49.7931 38.2022 50.0911 38.0334C50.389 37.8674 50.7498 37.7837 51.1721 37.7837C51.5944 37.7837 51.9538 37.866 52.249 38.0334C52.5442 38.2022 52.7848 38.4249 52.9706 38.7057C53.1565 38.9865 53.2918 39.3146 53.3752 39.6912C53.4599 40.0665 53.5023 40.4621 53.5023 40.8792Z" fill="white"/>
<path d="M61.4276 43.8495V39.5119L60.3138 40.3611L59.5771 39.3688L61.5451 37.9419H62.838V43.8481H61.4276" fill="white"/>
<path d="M67.2209 40.8792C67.2209 40.6956 67.2099 40.4931 67.1881 40.2704C67.1648 40.049 67.1238 39.8411 67.061 39.6494C66.9995 39.4577 66.9093 39.2957 66.7945 39.1661C66.6783 39.0365 66.528 38.9703 66.3421 38.9703C66.1562 38.9703 66.0045 39.0351 65.887 39.1661C65.7681 39.2957 65.6765 39.4577 65.6109 39.6494C65.5467 39.8411 65.503 40.049 65.4797 40.2704C65.4565 40.4931 65.4456 40.697 65.4456 40.8792C65.4456 41.0615 65.4579 41.2748 65.4797 41.5002C65.503 41.7257 65.5453 41.9336 65.6109 42.1253C65.6752 42.317 65.7667 42.479 65.887 42.6086C66.0045 42.7395 66.1576 42.8057 66.3421 42.8057C66.5266 42.8057 66.6783 42.7409 66.7945 42.6086C66.9093 42.4776 66.9981 42.317 67.061 42.1253C67.1238 41.9336 67.1648 41.7257 67.1881 41.5002C67.2099 41.2748 67.2209 41.0682 67.2209 40.8792ZM68.6736 40.8792C68.6736 41.2964 68.6313 41.6933 68.5465 42.0726C68.4632 42.4506 68.3279 42.7827 68.142 43.0689C67.9561 43.3565 67.7156 43.5833 67.4204 43.7534C67.1238 43.9221 66.7658 44.0072 66.3435 44.0072C65.9212 44.0072 65.5604 43.9221 65.2624 43.7534C64.9645 43.5833 64.7212 43.3565 64.5313 43.0689C64.3427 42.7827 64.206 42.4506 64.1213 42.0726C64.0379 41.6946 63.9955 41.2964 63.9955 40.8792C63.9955 40.4621 64.0379 40.0652 64.1213 39.6912C64.206 39.3159 64.3427 38.9865 64.5313 38.7057C64.7199 38.4249 64.9645 38.2022 65.2624 38.0334C65.5604 37.8674 65.9212 37.7837 66.3435 37.7837C66.7658 37.7837 67.1252 37.866 67.4204 38.0334C67.7156 38.2022 67.9561 38.4249 68.142 38.7057C68.3279 38.9865 68.4632 39.3146 68.5465 39.6912C68.6313 40.0665 68.6736 40.4621 68.6736 40.8792Z" fill="white"/>
<path d="M46.125 53.147V48.8094L45.0098 49.6599L44.2745 48.6677L46.2425 47.2407H47.5354V53.147H46.125Z" fill="white"/>
<path d="M51.0969 53.147V48.8094L49.9817 49.6599L49.2465 48.6677L51.2145 47.2407H52.5073V53.147H51.0969Z" fill="white"/>
<path d="M56.0457 53.147V48.8094L54.9305 49.6599L54.1979 48.6677L56.1646 47.2407H57.4574V53.147H56.047" fill="white"/>
<path d="M62.0945 50.1766C62.0945 49.9944 62.0836 49.7905 62.0603 49.5691C62.0385 49.3464 61.9947 49.1385 61.9346 48.9468C61.8731 48.7551 61.7829 48.5931 61.6681 48.4635C61.5519 48.3325 61.4016 48.2664 61.2157 48.2664C61.0299 48.2664 60.8782 48.3312 60.7593 48.4635C60.6404 48.5944 60.5502 48.7551 60.4846 48.9468C60.4203 49.1385 60.3766 49.345 60.3534 49.5691C60.3301 49.7905 60.3192 49.9944 60.3192 50.1766C60.3192 50.3589 60.3301 50.5735 60.3534 50.799C60.3766 51.0244 60.419 51.2323 60.4846 51.424C60.5488 51.6157 60.6404 51.7777 60.7593 51.9073C60.8782 52.0383 61.0299 52.1044 61.2157 52.1044C61.4016 52.1044 61.5519 52.0396 61.6681 51.9073C61.7829 51.7764 61.8717 51.6157 61.9346 51.424C61.9947 51.2323 62.0385 51.0244 62.0603 50.799C62.0836 50.5735 62.0945 50.367 62.0945 50.1766ZM63.5473 50.1766C63.5473 50.5938 63.5049 50.9907 63.4202 51.37C63.3354 51.748 63.2001 52.0801 63.0143 52.3677C62.8298 52.6539 62.5879 52.882 62.2927 53.0508C61.9975 53.2209 61.6394 53.3046 61.2171 53.3046C60.7948 53.3046 60.434 53.2209 60.1361 53.0508C59.8381 52.882 59.5949 52.6539 59.4049 52.3677C59.2163 52.0815 59.0796 51.7494 58.9949 51.37C58.9115 50.992 58.8678 50.5938 58.8678 50.1766C58.8678 49.7595 58.9102 49.3639 58.9949 48.9886C59.0796 48.612 59.2163 48.2853 59.4049 48.0045C59.5935 47.7223 59.8381 47.4996 60.1361 47.3308C60.434 47.1648 60.7948 47.0811 61.2171 47.0811C61.6394 47.0811 61.9975 47.1648 62.2927 47.3308C62.5892 47.4982 62.8298 47.7223 63.0143 48.0045C63.2001 48.2853 63.3354 48.612 63.4202 48.9886C63.5049 49.3639 63.5473 49.7608 63.5473 50.1766Z" fill="white"/>
<path d="M48.9827 59.7686V56.6204L48.1736 57.2373L47.6406 56.5178L49.0688 55.481H50.0063V59.7686H48.9827Z" fill="white"/>
<path d="M56.1604 59.7686V56.6204L55.3514 57.2373L54.817 56.5178L56.2452 55.481H57.1841V59.7686H56.1604Z" fill="white"/>
<path d="M46.1141 57.6125C46.1141 57.4802 46.1073 57.3317 46.0895 57.1697C46.0731 57.009 46.0417 56.8592 45.9966 56.7188C45.9515 56.5797 45.8872 56.4636 45.8039 56.3678C45.7205 56.2733 45.6112 56.226 45.4759 56.226C45.3406 56.226 45.2299 56.2733 45.1451 56.3678C45.059 56.4636 44.9934 56.5797 44.9456 56.7188C44.8978 56.8592 44.8677 57.009 44.8499 57.1697C44.8335 57.3317 44.8253 57.4788 44.8253 57.6125C44.8253 57.7461 44.8335 57.9 44.8499 58.0634C44.8663 58.2267 44.8978 58.3793 44.9456 58.5183C44.9934 58.6574 45.059 58.7735 45.1451 58.8693C45.2299 58.9652 45.3406 59.0111 45.4759 59.0111C45.6112 59.0111 45.7191 58.9652 45.8039 58.8693C45.8872 58.7735 45.9528 58.6574 45.9966 58.5183C46.0417 58.3793 46.0731 58.2267 46.0895 58.0634C46.1059 57.9 46.1141 57.7502 46.1141 57.6125ZM47.1678 57.6125C47.1678 57.9162 47.1377 58.2038 47.0762 58.4778C47.0147 58.7519 46.9163 58.9949 46.7824 59.2014C46.6471 59.4107 46.4722 59.5767 46.2576 59.6996C46.043 59.8224 45.782 59.8832 45.4759 59.8832C45.1697 59.8832 44.9073 59.8224 44.69 59.6996C44.4727 59.5767 44.2964 59.4107 44.1598 59.2014C44.0231 58.9949 43.9247 58.7532 43.8632 58.4778C43.8017 58.2038 43.7703 57.9149 43.7703 57.6125C43.7703 57.3101 43.8003 57.0225 43.8632 56.7498C43.9247 56.4771 44.0231 56.2382 44.1598 56.0343C44.2964 55.8318 44.4727 55.6685 44.69 55.547C44.9073 55.4268 45.1684 55.3647 45.4759 55.3647C45.7834 55.3647 46.043 55.4255 46.2576 55.547C46.4722 55.6685 46.6457 55.8318 46.7824 56.0343C46.9163 56.2382 47.0161 56.4771 47.0762 56.7498C47.1364 57.0225 47.1678 57.3101 47.1678 57.6125Z" fill="white"/>
<path d="M53.3315 57.6125C53.3315 57.4802 53.3233 57.3317 53.3069 57.1697C53.2905 57.009 53.2604 56.8592 53.2139 56.7188C53.1702 56.5797 53.1046 56.4636 53.0212 56.3678C52.9379 56.2733 52.8285 56.226 52.6932 56.226C52.5579 56.226 52.4472 56.2733 52.3625 56.3678C52.2764 56.4636 52.2094 56.5797 52.163 56.7188C52.1151 56.8592 52.0837 57.009 52.0673 57.1697C52.0509 57.3317 52.0413 57.4788 52.0413 57.6125C52.0413 57.7461 52.0495 57.9 52.0673 58.0634C52.0823 58.2267 52.1138 58.3793 52.163 58.5183C52.2094 58.6574 52.2764 58.7735 52.3625 58.8693C52.4472 58.9652 52.5579 59.0111 52.6932 59.0111C52.8285 59.0111 52.9365 58.9652 53.0212 58.8693C53.1046 58.7735 53.1702 58.6574 53.2139 58.5183C53.2604 58.3793 53.2905 58.2267 53.3069 58.0634C53.3233 57.9 53.3315 57.7502 53.3315 57.6125ZM54.3865 57.6125C54.3865 57.9162 54.3565 58.2038 54.295 58.4778C54.2335 58.7519 54.1351 58.9949 54.0011 59.2014C53.8658 59.4107 53.6923 59.5767 53.4777 59.6996C53.2631 59.8224 53.0021 59.8832 52.696 59.8832C52.3898 59.8832 52.1274 59.8224 51.9101 59.6996C51.6928 59.5767 51.5165 59.4107 51.3799 59.2014C51.2432 58.9949 51.1434 58.7532 51.0833 58.4778C51.0204 58.2038 50.9904 57.9149 50.9904 57.6125C50.9904 57.3101 51.0204 57.0225 51.0833 56.7498C51.1434 56.4771 51.2432 56.2382 51.3799 56.0343C51.5165 55.8318 51.6928 55.6685 51.9101 55.547C52.1274 55.4268 52.3885 55.3647 52.696 55.3647C53.0035 55.3647 53.2631 55.4255 53.4777 55.547C53.6923 55.6685 53.8658 55.8318 54.0011 56.0343C54.1351 56.2382 54.2335 56.4771 54.295 56.7498C54.3565 57.0225 54.3865 57.3101 54.3865 57.6125Z" fill="white"/>
<path d="M68.1078 59.7686V56.6204L67.2988 57.2373L66.7644 56.5178L68.1926 55.481H69.1315V59.7686H68.1078Z" fill="white"/>
<path d="M65.2802 57.6125C65.2802 57.4802 65.272 57.3317 65.2556 57.1697C65.2392 57.009 65.2092 56.8592 65.1627 56.7188C65.119 56.5797 65.0534 56.4636 64.97 56.3678C64.8866 56.2733 64.7773 56.226 64.642 56.226C64.5067 56.226 64.396 56.2733 64.3113 56.3678C64.2252 56.4636 64.1596 56.5797 64.1104 56.7188C64.0653 56.8592 64.0325 57.009 64.0161 57.1697C63.9997 57.3317 63.9901 57.4788 63.9901 57.6125C63.9901 57.7461 63.9983 57.9 64.0161 58.0634C64.0325 58.2267 64.0639 58.3793 64.1104 58.5183C64.1582 58.6574 64.2252 58.7735 64.3113 58.8693C64.396 58.9652 64.5067 59.0111 64.642 59.0111C64.7773 59.0111 64.8853 58.9652 64.97 58.8693C65.0534 58.7735 65.119 58.6574 65.1627 58.5183C65.2092 58.3793 65.2392 58.2267 65.2556 58.0634C65.272 57.9 65.2802 57.7502 65.2802 57.6125ZM66.3339 57.6125C66.3339 57.9162 66.3039 58.2038 66.2424 58.4778C66.1795 58.7519 66.0825 58.9949 65.9472 59.2014C65.8119 59.4107 65.6383 59.5767 65.4237 59.6996C65.2092 59.8224 64.9481 59.8832 64.642 59.8832C64.3359 59.8832 64.0735 59.8224 63.8562 59.6996C63.6389 59.5767 63.4626 59.4107 63.3259 59.2014C63.1892 58.9949 63.0895 58.7532 63.0293 58.4778C62.9678 58.2038 62.9364 57.9149 62.9364 57.6125C62.9364 57.3101 62.9665 57.0225 63.0293 56.7498C63.0908 56.4771 63.1892 56.2382 63.3259 56.0343C63.4626 55.8318 63.6389 55.6685 63.8562 55.547C64.0735 55.4268 64.3345 55.3647 64.642 55.3647C64.9495 55.3647 65.2092 55.4255 65.4237 55.547C65.6383 55.6685 65.8119 55.8318 65.9472 56.0343C66.0811 56.2382 66.1795 56.4771 66.2424 56.7498C66.3025 57.0225 66.3339 57.3101 66.3339 57.6125Z" fill="white"/>
<path d="M64.1678 64.8203V61.6721L63.3587 62.2904L62.8243 61.5682L64.2525 60.5327H65.1914V64.8203H64.1678Z" fill="white"/>
<path d="M61.3401 62.6643C61.3401 62.532 61.3319 62.3834 61.3155 62.2214C61.2991 62.0608 61.2691 61.911 61.2226 61.7706C61.1775 61.6315 61.1133 61.5154 61.0299 61.4195C60.9465 61.325 60.8372 61.2778 60.7019 61.2778C60.5666 61.2778 60.4559 61.325 60.3712 61.4195C60.2851 61.5154 60.2195 61.6315 60.1716 61.7706C60.1252 61.911 60.0924 62.0608 60.076 62.2214C60.0596 62.3834 60.05 62.5306 60.05 62.6643C60.05 62.7979 60.0582 62.9518 60.076 63.1152C60.0924 63.2785 60.1238 63.4311 60.1716 63.5701C60.2181 63.7092 60.2851 63.8253 60.3712 63.9211C60.4559 64.017 60.5666 64.0629 60.7019 64.0629C60.8372 64.0629 60.9452 64.017 61.0299 63.9211C61.1133 63.8253 61.1789 63.7092 61.2226 63.5701C61.2677 63.4311 61.2991 63.2785 61.3155 63.1152C61.3319 62.9518 61.3401 62.802 61.3401 62.6643ZM62.3952 62.6643C62.3952 62.968 62.3651 63.2555 62.3036 63.5296C62.2421 63.8036 62.1437 64.0466 62.0084 64.2545C61.8745 64.4624 61.6996 64.6285 61.485 64.7514C61.2704 64.8742 61.0094 64.935 60.7033 64.935C60.3971 64.935 60.1347 64.8742 59.9174 64.7514C59.7001 64.6285 59.5238 64.4638 59.3872 64.2545C59.2505 64.0466 59.1507 63.805 59.0906 63.5296C59.0305 63.2555 58.9977 62.9667 58.9977 62.6643C58.9977 62.3619 59.0291 62.0743 59.0906 61.8016C59.1521 61.5289 59.2505 61.29 59.3872 61.0861C59.5238 60.8836 59.7001 60.7203 59.9174 60.5988C60.1347 60.4786 60.3958 60.4165 60.7033 60.4165C61.0108 60.4165 61.2704 60.4786 61.485 60.5988C61.6996 60.7203 61.8745 60.8836 62.0084 61.0861C62.1437 61.29 62.2421 61.5289 62.3036 61.8016C62.3638 62.073 62.3952 62.3619 62.3952 62.6643Z" fill="white"/>
<path d="M47.5504 64.7581V62.5765L46.9901 63.0044L46.6211 62.5049L47.6106 61.7881H48.2611V64.7594H47.5504" fill="white"/>
<path d="M45.592 63.2653C45.592 63.1722 45.5852 63.0709 45.5756 62.9589C45.5633 62.8468 45.5428 62.7429 45.5114 62.647C45.4813 62.5512 45.4362 62.4688 45.3775 62.404C45.3187 62.3379 45.2435 62.3055 45.1506 62.3055C45.0577 62.3055 44.9811 62.3379 44.921 62.404C44.8609 62.4688 44.8158 62.5512 44.783 62.647C44.7502 62.7429 44.7283 62.8482 44.7174 62.9589C44.7064 63.0723 44.701 63.1735 44.701 63.2653C44.701 63.3571 44.7064 63.4651 44.7174 63.5772C44.7283 63.6906 44.7502 63.7959 44.783 63.8917C44.8158 63.9889 44.8622 64.0699 44.921 64.1347C44.9811 64.2009 45.0563 64.2333 45.1506 64.2333C45.2449 64.2333 45.3201 64.2009 45.3775 64.1347C45.4362 64.0699 45.48 63.9876 45.5114 63.8917C45.5428 63.7959 45.5633 63.6906 45.5756 63.5772C45.5852 63.4638 45.592 63.3585 45.592 63.2653ZM46.3218 63.2653C46.3218 63.4746 46.3 63.6744 46.2576 63.8661C46.2139 64.0551 46.1469 64.2238 46.054 64.3683C45.9597 64.5127 45.8394 64.6261 45.6904 64.7111C45.5415 64.7962 45.3624 64.8408 45.1506 64.8408C44.9388 64.8408 44.7556 64.7975 44.6067 64.7111C44.4563 64.6261 44.3347 64.5114 44.239 64.3683C44.1434 64.2238 44.075 64.0564 44.034 63.8661C43.9903 63.6757 43.9698 63.4759 43.9698 63.2653C43.9698 63.0547 43.9903 62.8549 44.034 62.6673C44.0764 62.4783 44.1447 62.3122 44.239 62.1705C44.3347 62.0301 44.4563 61.9167 44.6067 61.833C44.757 61.7493 44.9374 61.7061 45.1506 61.7061C45.3638 61.7061 45.5428 61.7479 45.6904 61.833C45.8408 61.9153 45.961 62.0301 46.054 62.1705C46.1483 62.3122 46.2152 62.4769 46.2576 62.6673C46.3 62.8549 46.3218 63.0547 46.3218 63.2653Z" fill="white"/>
<path d="M56.3805 68.5744V66.3928L55.8202 66.8207L55.4512 66.3212L56.4406 65.603H57.0898V68.5744H56.3805Z" fill="white"/>
<path d="M54.422 67.08C54.422 66.9868 54.4152 66.8856 54.4043 66.7735C54.3933 66.6615 54.3728 66.5575 54.3414 66.4617C54.31 66.3658 54.2649 66.2835 54.2088 66.2187C54.1501 66.1525 54.0749 66.1201 53.9806 66.1201C53.8863 66.1201 53.8098 66.1525 53.7524 66.2187C53.6922 66.2835 53.6458 66.3658 53.6143 66.4617C53.5815 66.5589 53.5597 66.6628 53.5487 66.7735C53.5378 66.8856 53.531 66.9882 53.531 67.08C53.531 67.1718 53.5378 67.2798 53.5487 67.3918C53.5597 67.5066 53.5815 67.6105 53.6143 67.7077C53.6458 67.8036 53.6936 67.8846 53.7524 67.9507C53.8111 68.0155 53.8877 68.0479 53.9806 68.0479C54.0735 68.0479 54.1501 68.0155 54.2088 67.9507C54.2662 67.8846 54.31 67.8036 54.3414 67.7077C54.3728 67.6092 54.3933 67.5052 54.4043 67.3918C54.4166 67.2798 54.422 67.1758 54.422 67.08ZM55.1518 67.08C55.1518 67.2892 55.13 67.489 55.0876 67.6807C55.0452 67.8711 54.9769 68.0371 54.884 68.1816C54.7897 68.326 54.6694 68.4408 54.5204 68.5258C54.3715 68.6109 54.1911 68.6527 53.9792 68.6527C53.7674 68.6527 53.5856 68.6109 53.4367 68.5258C53.285 68.4408 53.1633 68.3247 53.069 68.1816C52.9734 68.0371 52.905 67.8711 52.864 67.6807C52.8203 67.4904 52.7998 67.2892 52.7998 67.08C52.7998 66.8707 52.8217 66.6696 52.864 66.4819C52.9064 66.2929 52.9747 66.1269 53.069 65.9865C53.1647 65.8447 53.2863 65.7327 53.4367 65.649C53.587 65.5653 53.7674 65.5234 53.9792 65.5234C54.1911 65.5234 54.3728 65.5653 54.5204 65.649C54.6708 65.7327 54.791 65.8461 54.884 65.9865C54.9769 66.1269 55.0452 66.2929 55.0876 66.4819C55.1313 66.6696 55.1518 66.8707 55.1518 67.08Z" fill="white"/>
<path d="M68.5042 62.6643C68.5042 62.532 68.496 62.3834 68.4796 62.2214C68.4632 62.0608 68.4331 61.911 68.3867 61.7706C68.3416 61.6315 68.2773 61.5154 68.194 61.4195C68.1106 61.325 68.0013 61.2778 67.8673 61.2778C67.7334 61.2778 67.6213 61.325 67.5366 61.4195C67.4505 61.5154 67.3849 61.6315 67.3371 61.7706C67.2906 61.911 67.2578 62.0608 67.2414 62.2214C67.225 62.3834 67.2168 62.5306 67.2168 62.6643C67.2168 62.7979 67.2236 62.9518 67.2414 63.1152C67.2578 63.2785 67.2892 63.4311 67.3371 63.5701C67.3835 63.7092 67.4491 63.8253 67.5366 63.9211C67.6213 64.017 67.7334 64.0629 67.8673 64.0629C68.0013 64.0629 68.1106 64.017 68.194 63.9211C68.2773 63.8253 68.3429 63.7092 68.3867 63.5701C68.4331 63.4311 68.4632 63.2785 68.4796 63.1152C68.496 62.9518 68.5042 62.802 68.5042 62.6643ZM69.5593 62.6643C69.5593 62.968 69.5278 63.2555 69.4663 63.5296C69.4062 63.8036 69.3064 64.0466 69.1725 64.2545C69.0386 64.4624 68.8636 64.6285 68.6491 64.7514C68.4345 64.8742 68.1748 64.935 67.8673 64.935C67.5598 64.935 67.2988 64.8742 67.0815 64.7514C66.8656 64.6285 66.6879 64.4638 66.5512 64.2545C66.4146 64.0466 66.3148 63.805 66.2547 63.5296C66.1932 63.2555 66.1617 62.9667 66.1617 62.6643C66.1617 62.3619 66.1932 62.0743 66.2547 61.8016C66.3148 61.5289 66.4146 61.29 66.5512 61.0861C66.6879 60.8836 66.8656 60.7203 67.0815 60.5988C67.2988 60.4786 67.5598 60.4165 67.8673 60.4165C68.1748 60.4165 68.4345 60.4786 68.6491 60.5988C68.8636 60.7203 69.0386 60.8836 69.1725 61.0861C69.3064 61.29 69.4062 61.5289 69.4663 61.8016C69.5278 62.073 69.5593 62.3619 69.5593 62.6643Z" fill="white"/>
<path d="M66.5266 33.7203C65.5262 28.8887 61.1693 25.3827 56.17 25.3827C55.4088 25.3827 54.6599 25.4678 53.93 25.623C52.7151 18.5814 46.4968 13.2017 39.0266 13.2017C31.5564 13.2017 25.4542 18.4815 24.1586 25.4273C18.7808 25.9106 14.5536 30.3872 14.5536 35.825C14.5536 41.5827 19.296 46.2659 25.1248 46.2659H40.9413C41.749 46.2659 42.4022 45.6206 42.4022 44.8227C42.4022 44.0249 41.7476 43.3796 40.9413 43.3796H25.1248C20.9073 43.3796 17.4769 39.9911 17.4769 35.8263C17.4769 31.6616 20.9073 28.2717 25.1248 28.2717C26.6582 28.2717 28.1356 28.7172 29.3997 29.5596C30.0694 30.0051 30.9783 29.8323 31.4293 29.1722C31.8816 28.512 31.7053 27.6129 31.0357 27.1674C29.8412 26.3696 28.5087 25.8377 27.1092 25.5744C28.3037 20.1596 33.1923 16.0907 39.0266 16.0907C45.2435 16.0907 50.3835 20.7077 51.1284 26.6517C50.7361 26.8623 50.3535 27.0932 49.9872 27.3551C49.3326 27.8222 49.185 28.724 49.6579 29.3706C50.1307 30.0173 51.045 30.1631 51.6997 29.696C53.0062 28.7631 54.5533 28.2717 56.1714 28.2717C59.7903 28.2717 62.9405 30.807 63.6635 34.3022C63.8056 34.9853 64.4151 35.4564 65.0944 35.4564C65.19 35.4564 65.2898 35.447 65.3882 35.4267C66.1781 35.2674 66.6893 34.5047 66.528 33.7217" fill="white"/>
<mask id="mask0_977_134277" style="mask-type:luminance" maskUnits="userSpaceOnUse" x="21" y="13" width="39" height="28">
<path d="M59.7483 25.5613C58.3771 22.1283 54.6858 20.1115 50.9717 20.7651C50.4063 20.8646 49.861 21.0252 49.3391 21.2351C47.5215 16.1995 42.2038 13.0453 36.6543 14.0219C31.1049 14.9985 27.2569 19.6908 27.1953 24.9842C23.2626 26.0438 20.7031 29.8986 21.409 33.9095C22.1563 38.1564 26.2876 40.9908 30.6179 40.2287L42.3685 38.1608C42.9684 38.0553 43.3709 37.4938 43.2672 36.9045C43.1635 36.3151 42.5935 35.9248 41.9936 36.0304L30.243 38.0983C27.1095 38.6498 24.1207 36.5986 23.58 33.5264C23.0394 30.4543 25.1482 27.505 28.2817 26.9535C29.4206 26.7531 30.5758 26.8885 31.6242 27.3455C32.1794 27.5864 32.832 27.3402 33.0823 26.7943C33.3327 26.2483 33.085 25.6084 32.5297 25.3664C31.5389 24.9342 30.4792 24.7163 29.4056 24.7051C29.5897 20.554 32.6936 16.9143 37.029 16.1513C41.6477 15.3385 46.0668 18.072 47.3915 22.3589C47.1275 22.5655 46.8733 22.7857 46.6342 23.0269C46.2086 23.4569 46.216 24.1412 46.6501 24.5564C47.0853 24.9715 47.7833 24.9595 48.2089 24.5295C49.0592 23.6706 50.1434 23.1052 51.3462 22.8935C54.0342 22.4205 56.704 23.8781 57.6947 26.362C57.8889 26.8472 58.4028 27.1149 58.9083 27.026C58.9793 27.0135 59.0522 26.9935 59.1227 26.9657C59.6887 26.7449 59.9694 26.1157 59.748 25.5593" fill="white"/>
</mask>
<g mask="url(#mask0_977_134277)">
<path opacity="0.5" d="M23.044 26.7105C23.044 26.7105 26.5275 31.6797 21.2006 34.2542C15.8738 36.8287 23.6068 25.8529 23.6068 25.8529L22.782 26.3635L23.044 26.7105Z" fill="#151C2B"/>
<path opacity="0.5" d="M26.4208 23.854C26.4208 23.854 27.3346 25.7582 29.006 25.0751C30.5759 24.4334 31.0929 24.5344 31.0929 24.5344L43.5735 18.4204C43.5735 18.4204 45.7576 17.8493 45.3864 17.1376C45.3864 17.1376 46.0695 17.0944 46.0268 16.0787C45.9841 15.0629 43.5806 13.1981 43.5806 13.1981L25.5566 22.7437L26.4206 23.853L26.4208 23.854Z" fill="#151C2B"/>
</g>
<path d="M20.7166 25.1168C20.7166 25.1168 18.8053 31.5435 19.7967 32.4908C19.7967 32.4908 25.6797 31.2687 21.8595 25.1651L20.7156 25.117L20.7166 25.1168Z" fill="#D4D8DF"/>
<path d="M20.7166 25.1165C20.7166 25.1165 19.5992 24.8625 18.1352 26.1116L19.5906 26.1696C19.5906 26.1696 16.8865 27.4665 16.9657 29.8553C16.9657 29.8553 18.1162 29.3459 18.8706 29.0479C18.8706 29.0479 16.6633 31.2171 18.6962 33.4744L19.7979 32.4913C19.7979 32.4913 19.8308 32.9402 19.8595 33.2697C19.8595 33.2697 23.2989 31.7684 23.1449 28.6395C23.1449 28.6395 23.5409 29.3375 23.518 29.7367C23.518 29.7367 24.4204 28.0497 21.8595 25.1647C19.2997 22.2806 21.0514 24.6583 21.0514 24.6583L20.7155 25.1166L20.7166 25.1165Z" fill="url(#paint0_linear_977_134277)"/>
<mask id="mask1_977_134277" style="mask-type:luminance" maskUnits="userSpaceOnUse" x="16" y="23" width="8" height="11">
<path d="M20.7166 25.1165C20.7166 25.1165 19.5992 24.8625 18.1352 26.1116L19.5906 26.1696C19.5906 26.1696 16.8865 27.4665 16.9657 29.8553C16.9657 29.8553 18.1162 29.3459 18.8706 29.0479C18.8706 29.0479 16.6633 31.2171 18.6962 33.4744L19.7979 32.4913C19.7979 32.4913 19.8308 32.9402 19.8595 33.2697C19.8595 33.2697 23.2989 31.7684 23.1449 28.6395C23.1449 28.6395 23.5409 29.3375 23.518 29.7367C23.518 29.7367 24.4204 28.0497 21.8595 25.1647C19.2997 22.2806 21.0514 24.6583 21.0514 24.6583L20.7155 25.1166L20.7166 25.1165Z" fill="white"/>
</mask>
<g mask="url(#mask1_977_134277)">
<path d="M21.6686 24.9486C21.6686 24.9486 22.5578 26.8315 22.4809 28.0951L22.131 27.5758C22.131 27.5758 22.8463 29.7612 19.8593 33.2684C16.8723 36.7756 25.2661 34.4487 25.2661 34.4487L24.4772 26.3028L21.9964 24.4917L21.6686 24.9486Z" fill="url(#paint1_linear_977_134277)"/>
</g>
<path d="M20.889 25.2875C20.889 25.2875 18.5668 26.5901 18.2231 28.2588C18.2231 28.2588 19.6243 27.8778 19.9071 27.9625C19.9071 27.9625 18.2008 29.6843 18.8027 31.552C18.8027 31.552 21.536 30.1001 21.2802 26.6545C21.0244 23.2089 20.889 25.2875 20.889 25.2875Z" fill="white"/>
<path d="M25.7876 19.7379C25.7876 19.7379 21.8876 4.62976 23.3603 1.96689C24.8329 -0.695984 39.0076 8.28101 41.6161 11.5548C44.2254 14.8274 28.7938 22.953 25.7865 19.7381L25.7876 19.7379Z" fill="url(#paint2_linear_977_134277)"/>
<path d="M27.4811 7.6446C27.1238 6.81558 24.3255 3.78354 24.2187 3.65249C23.7298 2.63419 23.3602 1.96744 23.3602 1.96744C23.3602 1.96744 22.1362 9.77167 21.0656 11.4308C19.995 13.09 16.1367 17.0277 19.9465 23.5067C19.9465 23.5067 21.1241 24.9057 20.8659 27.167C20.8659 27.167 22.3043 26.1113 22.1418 21.6671C22.012 18.1408 23.0792 16.5038 24.6597 14.7333L27.5084 14.2105L28.2195 11.6683C28.2195 11.6683 27.8392 8.47244 27.4819 7.64342L27.4811 7.6446Z" fill="url(#paint3_linear_977_134277)"/>
<path d="M44.5429 14.158C45.1705 13.2049 44.2234 10.4517 44.0441 11.3238C44.0028 11.523 43.958 11.7741 43.912 12.0419C43.7877 11.8174 43.6368 11.6202 43.451 11.462C42.5378 10.6857 42.0731 11.3155 41.8772 11.7544C41.6603 11.7289 41.3968 11.7599 41.1131 11.932C40.3886 12.3704 40.4205 13.3604 40.4205 13.3604C40.4205 13.3604 39.7287 12.932 38.7274 13.6584C37.726 14.3847 37.3215 15.8805 37.3215 15.8805C37.3215 15.8805 36.4003 15.3139 35.6947 15.6813C34.9891 16.0487 34.7692 17.1302 34.7692 17.1302C34.7692 17.1302 34.0429 16.5057 32.7238 16.8836C31.4047 17.2614 30.7961 18.7623 30.7961 18.7623C30.7961 18.7623 30.3426 17.9338 29.2431 18.1027C28.3453 18.2401 27.531 19.0424 27.2619 19.333C27.1752 19.3339 27.0956 19.3335 27.0233 19.3329C26.6557 19.0815 25.66 18.4962 24.8878 18.943C24.2514 19.3106 24.6181 20.1277 24.942 20.6424C24.2984 21.005 23.5441 21.5894 23.9539 22.1813C24.3553 22.7614 24.853 22.8483 25.187 22.8254C25.0214 23.3533 24.9145 24.0424 25.3589 24.3018C26.1206 24.7466 27.1633 23.4526 27.1633 23.4526C27.1633 23.4526 26.8953 24.4748 28.4609 24.3204C30.0266 24.166 30.2923 23.137 30.2923 23.137C30.2923 23.137 30.7665 24.1364 31.6393 23.72C32.511 23.3039 33.0518 22.4164 33.0518 22.4164C33.0518 22.4164 33.6464 23.5351 34.87 23.132C36.0253 22.7511 36.1891 21.2854 36.2036 21.1238C36.2113 21.1203 36.2191 21.1169 36.227 21.1145C36.4577 21.1704 38.4599 21.6237 39.5402 20.9594C40.1428 20.5896 39.9115 20.0422 39.5563 19.6059C42.5619 19.7544 42.8786 17.766 42.8786 17.766C42.8786 17.766 43.8192 17.9371 44.4253 17.7237C45.0313 17.5103 44.2966 16.5999 44.2966 16.5999C44.2966 16.5999 45.5379 16.9039 46.2315 15.113C46.9262 13.3219 44.5431 14.159 44.5431 14.159L44.5429 14.158Z" fill="url(#paint4_linear_977_134277)"/>
<path d="M24.6222 14.7752C24.6222 14.7752 25.2685 14.1719 26.4239 14.1841C27.1315 14.191 27.6771 13.5448 27.7382 12.8516C27.8642 11.4264 27.951 9.19009 27.4821 7.64379C27.4821 7.64379 29.1086 13.7045 27.8024 15.8269C26.4963 17.9494 25.2277 17.4429 25.2277 17.4429L24.6232 14.7751L24.6222 14.7752Z" fill="#7A1123"/>
<mask id="mask2_977_134277" style="mask-type:luminance" maskUnits="userSpaceOnUse" x="23" y="11" width="24" height="14">
<path d="M44.5429 14.158C45.1705 13.2049 44.2234 10.4517 44.0441 11.3238C44.0028 11.523 43.958 11.7741 43.912 12.0419C43.7877 11.8174 43.6368 11.6202 43.451 11.462C42.5378 10.6857 42.0731 11.3155 41.8772 11.7544C41.6603 11.7289 41.3968 11.7599 41.1131 11.932C40.3886 12.3704 40.4205 13.3604 40.4205 13.3604C40.4205 13.3604 39.7287 12.932 38.7274 13.6584C37.726 14.3847 37.3215 15.8805 37.3215 15.8805C37.3215 15.8805 36.4003 15.3139 35.6947 15.6813C34.9891 16.0487 34.7692 17.1302 34.7692 17.1302C34.7692 17.1302 34.0429 16.5057 32.7238 16.8836C31.4047 17.2614 30.7961 18.7623 30.7961 18.7623C30.7961 18.7623 30.3426 17.9338 29.2431 18.1027C28.3453 18.2401 27.531 19.0424 27.2619 19.333C27.1752 19.3339 27.0956 19.3335 27.0233 19.3329C26.6557 19.0815 25.66 18.4962 24.8878 18.943C24.2514 19.3106 24.6181 20.1277 24.942 20.6424C24.2984 21.005 23.5441 21.5894 23.9539 22.1813C24.3553 22.7614 24.853 22.8483 25.187 22.8254C25.0214 23.3533 24.9145 24.0424 25.3589 24.3018C26.1206 24.7466 27.1633 23.4526 27.1633 23.4526C27.1633 23.4526 26.8953 24.4748 28.4609 24.3204C30.0266 24.166 30.2923 23.137 30.2923 23.137C30.2923 23.137 30.7665 24.1364 31.6393 23.72C32.511 23.3039 33.0518 22.4164 33.0518 22.4164C33.0518 22.4164 33.6464 23.5351 34.87 23.132C36.0253 22.7511 36.1891 21.2854 36.2036 21.1238C36.2113 21.1203 36.2191 21.1169 36.227 21.1145C36.4577 21.1704 38.4599 21.6237 39.5402 20.9594C40.1428 20.5896 39.9115 20.0422 39.5563 19.6059C42.5619 19.7544 42.8786 17.766 42.8786 17.766C42.8786 17.766 43.8192 17.9371 44.4253 17.7237C45.0313 17.5103 44.2966 16.5999 44.2966 16.5999C44.2966 16.5999 45.5379 16.9039 46.2315 15.113C46.9262 13.3219 44.5431 14.159 44.5431 14.159L44.5429 14.158Z" fill="white"/>
</mask>
<g mask="url(#mask2_977_134277)">
<path d="M30.797 18.7613C30.797 18.7613 30.2722 19.764 30.6408 20.55C31.2104 21.7645 32.5551 21.4847 32.5551 21.4847C32.5551 21.4847 32.7052 22.0403 33.2535 22.694C33.7711 23.3101 34.2551 25.293 34.2551 25.293L22.5404 28.3738L22.6398 19.6918L24.8417 16.5876L30.2999 17.4591L30.7971 18.7623L30.797 18.7613Z" fill="url(#paint5_linear_977_134277)"/>
</g>
<path d="M26.7507 20.1923C26.5415 20.2168 26.3307 20.1667 26.16 20.0469C25.8925 19.8589 25.603 19.5342 26.0008 19.1604C26.6304 18.5693 28.0514 19.169 28.0138 19.6508C27.987 19.9983 27.1916 20.1404 26.7507 20.1923Z" fill="url(#paint6_linear_977_134277)"/>
<path d="M32.6652 22.289C32.6364 22.4942 32.5168 22.6826 32.3277 22.8154C32.0295 23.0239 31.5639 23.2208 31.2321 22.7506C30.7068 22.0076 31.8153 20.8016 32.3761 20.9554C32.7807 21.0658 32.7272 21.8563 32.6662 22.2889L32.6652 22.289Z" fill="url(#paint7_linear_977_134277)"/>
<mask id="mask3_977_134277" style="mask-type:luminance" maskUnits="userSpaceOnUse" x="-65" y="1" width="61" height="60">
<path d="M-29.0143 59.7959C-12.6752 56.9205 -1.71584 41.5994 -4.53583 25.5752C-7.35582 9.55102 -22.8873 -1.10817 -39.2264 1.76724C-55.5655 4.64265 -66.5249 19.9638 -63.7049 35.988C-60.8849 52.0122 -45.3534 62.6714 -29.0143 59.7959Z" fill="white"/>
</mask>
<g mask="url(#mask3_977_134277)">
</g>
</g>
<defs>
<linearGradient id="paint0_linear_977_134277" x1="17.4531" y1="27.8974" x2="22.283" y2="29.5862" gradientUnits="userSpaceOnUse">
<stop stop-color="white"/>
<stop offset="1" stop-color="#D4D8DF"/>
</linearGradient>
<linearGradient id="paint1_linear_977_134277" x1="18.8654" y1="28.8104" x2="35.916" y2="37.5704" gradientUnits="userSpaceOnUse">
<stop stop-color="#151C2B" stop-opacity="0"/>
<stop offset="1" stop-color="#151C2B"/>
</linearGradient>
<linearGradient id="paint2_linear_977_134277" x1="25.4471" y1="20.313" x2="34.1014" y2="4.08572" gradientUnits="userSpaceOnUse">
<stop offset="0.03" stop-color="#7A1123"/>
<stop offset="0.11" stop-color="#8B0E26"/>
<stop offset="0.37" stop-color="#BE062F"/>
<stop offset="0.57" stop-color="#DE0134"/>
<stop offset="0.68" stop-color="#EB0037"/>
</linearGradient>
<linearGradient id="paint3_linear_977_134277" x1="29.4747" y1="20.8344" x2="19.678" y2="12.1682" gradientUnits="userSpaceOnUse">
<stop offset="0.03" stop-color="#7A1123"/>
<stop offset="0.11" stop-color="#8B0E26"/>
<stop offset="0.37" stop-color="#BE062F"/>
<stop offset="0.57" stop-color="#DE0134"/>
<stop offset="0.68" stop-color="#EB0037"/>
</linearGradient>
<linearGradient id="paint4_linear_977_134277" x1="39.4642" y1="2.56831" x2="32.9928" y2="27.1957" gradientUnits="userSpaceOnUse">
<stop stop-color="white"/>
<stop offset="1" stop-color="#D4D8DF"/>
</linearGradient>
<linearGradient id="paint5_linear_977_134277" x1="31.4322" y1="20.2301" x2="21.822" y2="23.9299" gradientUnits="userSpaceOnUse">
<stop stop-color="#151C2B" stop-opacity="0"/>
<stop offset="1" stop-color="#151C2B"/>
</linearGradient>
<linearGradient id="paint6_linear_977_134277" x1="29.3595" y1="12.7048" x2="26.8625" y2="20.0908" gradientUnits="userSpaceOnUse">
<stop stop-color="white"/>
<stop offset="1" stop-color="#D4D8DF"/>
</linearGradient>
<linearGradient id="paint7_linear_977_134277" x1="37.5088" y1="2.05406" x2="31.0364" y2="26.6817" gradientUnits="userSpaceOnUse">
<stop stop-color="white"/>
<stop offset="1" stop-color="#D4D8DF"/>
</linearGradient>
<clipPath id="clip0_977_134277">
<rect width="123" height="72" fill="white" transform="translate(0 1)"/>
</clipPath>
</defs>
</svg>
